HIERARCHY
ROOT Hips
{
	OFFSET -0.001795 -0.223333 0.028219
	CHANNELS 6 Xposition Yposition Zposition Zrotation Yrotation Xrotation 
	JOINT LeftUpLeg
	{
		OFFSET 0.069520 -0.091406 -0.006815
		CHANNELS 3 Zrotation Yrotation Xrotation
		JOINT LeftLeg
		{
			OFFSET 0.034277 -0.375199 -0.004496
			CHANNELS 3 Zrotation Yrotation Xrotation
			JOINT LeftFoot
			{
				OFFSET -0.013596 -0.397961 -0.043693
				CHANNELS 3 Zrotation Yrotation Xrotation
				JOINT LeftToe
				{
					OFFSET 0.026358 -0.055791 0.119288
					CHANNELS 3 Zrotation Yrotation Xrotation
					End Site
					{
						OFFSET 0.000000 0.000000 0.000000
					}
				}
			}
		}
	}
	JOINT RightUpLeg
	{
		OFFSET -0.067670 -0.090522 -0.004320
		CHANNELS 3 Zrotation Yrotation Xrotation
		JOINT RightLeg
		{
			OFFSET -0.038290 -0.382569 -0.008850
			CHANNELS 3 Zrotation Yrotation Xrotation
			JOINT RightFoot
			{
				OFFSET 0.015774 -0.398415 -0.042312
				CHANNELS 3 Zrotation Yrotation Xrotation
				JOINT RightToe
				{
					OFFSET -0.025372 -0.048144 0.123348
					CHANNELS 3 Zrotation Yrotation Xrotation
					End Site
					{
						OFFSET 0.000000 0.000000 0.000000
					}
				}
			}
		}
	}
	JOINT Spine
	{
		OFFSET -0.002533 0.108963 -0.026696
		CHANNELS 3 Zrotation Yrotation Xrotation
		JOINT Spine1
		{
			OFFSET 0.005487 0.135180 0.001092
			CHANNELS 3 Zrotation Yrotation Xrotation
			JOINT Spine2
			{
				OFFSET 0.001457 0.052922 0.025425
				CHANNELS 3 Zrotation Yrotation Xrotation
				JOINT Neck
				{
					OFFSET -0.002778 0.213870 -0.042857
					CHANNELS 3 Zrotation Yrotation Xrotation
					JOINT Head
					{
						OFFSET 0.005152 0.064970 0.051349
						CHANNELS 3 Zrotation Yrotation Xrotation
						End Site
						{
							OFFSET 0.000000 0.000000 0.000000
						}
					}
				}
				JOINT LeftShoulder
				{
					OFFSET 0.078845 0.121749 -0.034090
					CHANNELS 3 Zrotation Yrotation Xrotation
					JOINT LeftArm
					{
						OFFSET 0.090977 0.030469 -0.008868
						CHANNELS 3 Zrotation Yrotation Xrotation
						JOINT LeftForeArm
						{
							OFFSET 0.259612 -0.012772 -0.027456
							CHANNELS 3 Zrotation Yrotation Xrotation
							JOINT LeftHand
							{
								OFFSET 0.249234 0.008986 -0.001171
								CHANNELS 3 Zrotation Yrotation Xrotation
								End Site
								{
									OFFSET 0.000000 0.000000 0.000000
								}
							}
						}
					}
				}
				JOINT RightShoulder
				{
					OFFSET -0.081759 0.118833 -0.038615
					CHANNELS 3 Zrotation Yrotation Xrotation
					JOINT RightArm
					{
						OFFSET -0.096012 0.032551 -0.009143
						CHANNELS 3 Zrotation Yrotation Xrotation
						JOINT RightForeArm
						{
							OFFSET -0.253742 -0.013329 -0.021401
							CHANNELS 3 Zrotation Yrotation Xrotation
							JOINT RightHand
							{
								OFFSET -0.255298 0.007772 -0.005559
								CHANNELS 3 Zrotation Yrotation Xrotation
								End Site
								{
									OFFSET 0.000000 0.000000 0.000000
								}
							}
						}
					}
				}
			}
		}
	}
}
MOTION
Frames: 13
Frame Time: 0.050000
0.000000 0.957740 0.000000 -0.696756 -3.323902 0.230698 2.806319 0.475230 6.892343 -1.473297 0.278217 -4.982437 3.547390 10.672838 15.482961 0.000000 0.000000 0.000000 -3.094862 -0.195181 4.208545 3.224377 -0.368634 -5.058565 -2.252940 -11.070060 18.169511 0.000000 0.000000 0.000000 5.236855 -0.339988 3.447724 -4.461579 1.668294 -21.356056 -1.507698 5.356931 27.220102 8.038006 -2.928529 -23.524152 0.000000 0.000000 0.000000 -15.314613 -2.745109 -0.043819 -36.260507 -7.691076 -3.794259 6.300853 -19.501661 -0.301739 0.000000 0.000000 0.000000 22.497919 -7.384167 -4.786618 37.522946 9.357705 -3.155876 -6.898070 21.757147 -0.118130 0.000000 0.000000 0.000000 
0.000046 0.956495 0.001120 -0.727997 -3.764946 0.345394 3.116002 0.463067 6.918055 -2.083049 0.325205 -4.990800 3.790961 10.952781 15.219040 0.000000 0.000000 0.000000 -3.354623 -0.118833 3.409060 3.318497 -0.361863 -4.095651 -1.726865 -10.300038 18.230927 0.000000 0.000000 0.000000 5.546493 -0.347933 3.393116 -5.169429 1.844158 -21.517131 -1.243307 6.142194 27.075945 7.959076 -2.676170 -24.194676 0.000000 0.000000 0.000000 -16.067642 -2.730834 -0.223803 -39.562217 -8.658279 -3.782148 5.334838 -18.539127 -0.120152 0.000000 0.000000 0.000000 24.310449 -8.018283 -5.260358 40.568857 8.262008 -3.694447 -6.943373 22.951472 -0.059993 0.000000 0.000000 0.000000 
0.000012 0.955976 0.002017 -0.451269 -3.340265 0.205585 3.265530 0.434131 6.721449 -2.757958 0.365871 -4.394964 3.573957 10.625498 14.942601 0.000000 0.000000 0.000000 -3.789602 -0.130618 3.949598 3.327749 -0.370139 -4.584744 -1.438926 -9.764384 18.224911 0.000000 0.000000 0.000000 5.615604 -0.364151 3.571258 -5.369269 1.897882 -22.068519 -1.473462 6.013658 27.365457 8.386370 -2.880212 -24.462303 0.000000 0.000000 0.000000 -16.684969 -4.061281 0.368231 -41.990275 -7.502590 -4.331506 4.119474 -19.387728 0.080116 0.000000 0.000000 0.000000 25.810841 -7.491116 -5.057172 42.767845 7.054144 -4.256171 -5.306665 23.013203 0.249300 0.000000 0.000000 0.000000 
-0.000178 0.955585 0.003239 -0.340653 -3.467603 -0.293909 3.342633 0.493619 7.548428 -3.089106 0.396584 -4.713422 3.550727 10.587915 14.949070 0.000000 0.000000 0.000000 -4.025942 -0.159718 4.665618 3.774281 -0.395222 -4.678899 -1.766154 -10.211438 17.768359 0.000000 0.000000 0.000000 5.717815 -0.368434 3.689093 -5.854032 2.023637 -22.249748 -1.302515 5.940239 27.778228 8.100773 -2.751235 -24.439576 0.000000 0.000000 0.000000 -17.804851 -3.866986 0.227641 -44.066081 -7.452559 -4.576536 1.963407 -19.184157 0.454516 0.000000 0.000000 0.000000 27.354689 -7.299519 -5.154253 44.547355 6.018034 -4.783017 -2.915930 23.543079 0.701969 0.000000 0.000000 0.000000 
-0.000380 0.955788 0.004413 -0.358654 -3.232690 -0.362953 3.493987 0.493272 7.752047 -3.232988 0.406868 -4.852517 3.393193 10.381521 14.996995 0.000000 0.000000 0.000000 -3.901395 -0.184675 4.859752 3.376261 -0.376527 -4.839176 -1.475662 -9.820005 18.267796 0.000000 0.000000 0.000000 5.552168 -0.355054 3.615383 -5.467423 1.930032 -22.080688 -1.337360 5.943895 27.022372 7.922010 -2.714459 -23.629676 0.000000 0.000000 0.000000 -18.520193 -4.513192 0.441200 -46.280473 -6.853723 -4.894471 0.114351 -18.356878 0.722868 0.000000 0.000000 0.000000 27.964654 -7.106601 -5.074457 47.052936 5.070493 -5.247438 -1.764328 22.548841 0.882601 0.000000 0.000000 0.000000 
-0.000489 0.955908 0.005278 -0.333681 -3.317417 -0.311515 3.323092 0.509831 7.794128 -2.997312 0.390531 -4.916228 3.437888 10.453988 15.075505 0.000000 0.000000 0.000000 -4.189450 -0.161018 4.850391 3.630762 -0.389340 -4.792589 -1.063248 -9.158277 18.262534 0.000000 0.000000 0.000000 5.459715 -0.331948 3.380086 -5.470839 1.929231 -22.078259 -1.196215 5.634793 27.119601 7.499914 -2.452037 -24.046882 0.000000 0.000000 0.000000 -18.749076 -4.609978 0.579451 -48.717540 -6.722228 -5.212653 -1.408425 -17.791542 0.952706 0.000000 0.000000 0.000000 27.819873 -6.658724 -4.891345 49.642478 4.885498 -5.480358 0.494223 21.868084 1.227629 0.000000 0.000000 0.000000 
-0.000511 0.955813 0.005702 -0.270249 -3.390735 -0.431167 3.317271 0.517546 7.860501 -3.119371 0.398945 -4.742893 3.467382 10.487830 15.048977 0.000000 0.000000 0.000000 -4.065546 -0.171344 4.874174 3.415077 -0.375056 -4.531159 -1.296905 -9.477893 17.950348 0.000000 0.000000 0.000000 5.295702 -0.325164 3.393157 -5.189641 1.855705 -22.005490 -1.253700 5.445680 27.001975 7.384328 -2.450112 -23.821393 0.000000 0.000000 0.000000 -19.444007 -5.130170 0.873537 -50.268713 -6.036124 -5.624346 -3.004605 -17.122400 1.155763 0.000000 0.000000 0.000000 28.163162 -5.850537 -4.480227 51.172836 4.536867 -5.711756 1.517751 21.485504 1.365639 0.000000 0.000000 0.000000 
-0.000481 0.955719 0.005891 -0.300014 -3.485936 -0.320629 3.177381 0.512353 7.636699 -2.857008 0.376955 -4.520776 3.571608 10.622366 14.981857 0.000000 0.000000 0.000000 -4.008751 -0.157203 4.604378 3.408086 -0.371216 -4.196846 -1.355579 -9.520633 17.669547 0.000000 0.000000 0.000000 5.284792 -0.310310 3.202834 -5.044309 1.815726 -21.932301 -1.210931 5.455133 27.047065 7.431252 -2.461959 -23.997894 0.000000 0.000000 0.000000 -19.627830 -5.664079 1.174587 -51.858481 -5.847366 -5.869252 -4.164805 -16.690552 1.296472 0.000000 0.000000 0.000000 28.193151 -5.463677 -4.236847 52.870557 4.678571 -5.785428 2.525433 21.200444 1.518727 0.000000 0.000000 0.000000 
-0.000411 0.955834 0.006004 -0.255234 -3.431319 -0.382087 3.084344 0.517346 7.620100 -2.771466 0.368439 -4.381751 3.549899 10.595178 14.983480 0.000000 0.000000 0.000000 -3.842460 -0.172462 4.638709 3.265398 -0.362705 -4.146368 -1.799935 -10.237288 17.638723 0.000000 0.000000 0.000000 5.202117 -0.300839 3.134624 -4.941422 1.790104 -21.900131 -1.210513 5.446473 27.055223 7.365841 -2.434126 -23.886378 0.000000 0.000000 0.000000 -19.650814 -6.023001 1.362614 -53.197854 -5.905102 -5.977419 -5.066551 -16.666239 1.427132 0.000000 0.000000 0.000000 28.558230 -5.069118 -3.998011 53.798787 4.541127 -5.925052 3.288701 20.913095 1.622881 0.000000 0.000000 0.000000 
-0.000390 0.955926 0.006102 -0.274736 -3.533178 -0.409343 2.916405 0.530384 7.611487 -2.471254 0.343732 -4.283411 3.628619 10.705900 14.997573 0.000000 0.000000 0.000000 -3.929458 -0.171507 4.749374 3.469037 -0.374566 -4.206706 -1.749828 -10.131135 17.474985 0.000000 0.000000 0.000000 5.216403 -0.290042 3.009705 -4.920349 1.783706 -21.827605 -1.142756 5.576777 27.121917 7.333152 -2.393816 -23.942393 0.000000 0.000000 0.000000 -19.545849 -6.340259 1.523464 -54.145265 -5.968190 -6.043331 -5.946050 -16.577545 1.545206 0.000000 0.000000 0.000000 28.807749 -4.876795 -3.861327 54.739831 4.610549 -5.981104 3.859508 20.687067 1.703614 0.000000 0.000000 0.000000 
-0.000380 0.955887 0.006195 -0.258748 -3.350600 -0.423997 2.896032 0.537174 7.724794 -2.417904 0.341374 -4.483824 3.526755 10.569026 14.986894 0.000000 0.000000 0.000000 -3.896990 -0.182244 4.840729 3.349117 -0.370071 -4.340665 -1.751303 -10.146066 17.643932 0.000000 0.000000 0.000000 5.304731 -0.292978 3.012571 -4.979727 1.802693 -21.862092 -1.200728 5.398903 27.043958 7.296727 -2.404621 -23.778514 0.000000 0.000000 0.000000 -19.564201 -6.669391 1.715731 -54.674042 -5.865267 -6.136645 -6.400037 -16.973038 1.654124 0.000000 0.000000 0.000000 28.850966 -4.603666 -3.699794 55.280243 4.429513 -6.092393 3.950937 20.523035 1.701644 0.000000 0.000000 0.000000 
-0.000407 0.955868 0.006266 -0.253101 -3.306470 -0.458564 2.872582 0.549434 7.874698 -2.370243 0.340356 -4.681071 3.490079 10.522848 15.010826 0.000000 0.000000 0.000000 -4.016128 -0.181392 4.957563 3.465718 -0.377700 -4.381251 -1.578345 -9.826921 17.527174 0.000000 0.000000 0.000000 5.341499 -0.299213 3.078485 -5.004348 1.810064 -21.891238 -1.195410 5.353894 26.892100 7.290656 -2.352357 -24.086753 0.000000 0.000000 0.000000 -19.437935 -6.847319 1.812643 -54.981519 -5.868079 -6.145091 -6.735339 -17.094995 1.715680 0.000000 0.000000 0.000000 28.788500 -4.670612 -3.750528 55.774097 4.524025 -6.059156 4.078989 20.282874 1.699138 0.000000 0.000000 0.000000 
-0.000451 0.956010 0.006300 -0.297598 -3.381191 -0.550836 2.881897 0.567226 8.097875 -2.309396 0.339103 -4.869973 3.504115 10.551463 15.090961 0.000000 0.000000 0.000000 -3.955594 -0.193695 5.092548 3.468898 -0.378190 -4.503632 -1.595409 -9.905724 17.695277 0.000000 0.000000 0.000000 5.408761 -0.308740 3.184589 -5.018454 1.810657 -22.010591 -1.117097 5.329576 26.891526 7.313576 -2.364909 -24.183785 0.000000 0.000000 0.000000 -19.773941 -7.034847 1.919982 -54.660644 -5.653109 -6.205826 -7.023838 -17.480051 1.800398 0.000000 0.000000 0.000000 29.079067 -4.410036 -3.632470 55.578072 4.649312 -5.991320 4.038144 20.264580 1.684954 0.000000 0.000000 0.000000 
